<?xml version="1.0" encoding="utf-8"?>
<!-- Generator: Adobe Illustrator 27.5.0, SVG Export Plug-In . SVG Version: 6.00 Build 0)  -->
<svg version="1.1" id="store" xmlns="http://www.w3.org/2000/svg" xmlns:xlink="http://www.w3.org/1999/xlink" x="0px" y="0px"
	 viewBox="0 0 800 400" style="enable-background:new 0 0 800 400;" xml:space="preserve">
<g>
	<g>
		<defs>
			<rect id="SVGID_1_" width="800" height="400"/>
		</defs>
		<clipPath id="SVGID_00000155127398099409415190000010224916610862725513_">
			<use xlink:href="#SVGID_1_"  style="overflow:visible;"/>
		</clipPath>
		
			<rect style="clip-path:url(#SVGID_00000155127398099409415190000010224916610862725513_);fill-rule:evenodd;clip-rule:evenodd;fill:#FFFFFF;" width="800" height="400"/>
		
			<linearGradient id="SVGID_00000146493244405912536130000009587888827862918307_" gradientUnits="userSpaceOnUse" x1="1.9729" y1="200" x2="798.0271" y2="200">
			<stop  offset="0.0056" style="stop-color:#C43BB8"/>
			<stop  offset="1" style="stop-color:#6D1AA4"/>
		</linearGradient>
		
			<path style="opacity:0.3;clip-path:url(#SVGID_00000155127398099409415190000010224916610862725513_);fill:url(#SVGID_00000146493244405912536130000009587888827862918307_);" d="
			M112.248,362.778c0,19.408-16.081,35.37-36.521,37.054V400H1.973V274.698h59.46c22.108,0,40.092,16.221,40.092,36.156
			c0,7.759-2.752,14.938-7.385,20.835C105.035,338.35,112.248,349.792,112.248,362.778z M23.421,325.56h38.011
			c10.28,0,18.645-6.595,18.645-14.705c0-8.111-8.365-14.709-18.645-14.709H23.421V325.56z M90.801,362.778
			c0-8.697-8.365-15.771-18.645-15.771H23.421v31.546h48.735C82.436,378.553,90.801,371.475,90.801,362.778z M237.757,270.155
			v62.598c0,58.446-35.835,67.171-57.198,67.171c-21.361,0-57.195-8.724-57.195-67.171v-62.598h21.447v62.598
			c0,40.527,19.106,45.726,35.748,45.726c16.644,0,35.751-5.199,35.751-45.726v-62.598H237.757z M332.63,378.553V400h-77.933
			V274.698h21.448v103.855H332.63z M420.398,378.553V400h-77.933V274.698h21.448v103.855H420.398z M516.121,274.698l-47.635,70.189
			V400h-21.447v-55.045l-48.851-70.257h26.119l33.348,47.956l32.547-47.956H516.121z M524.474,400V274.698h21.448V400H524.474z
			 M671.353,274.698V400h-23.682l-61.339-90.4V400h-21.448V274.698h23.682l61.339,90.4v-90.4H671.353z M798.027,332.283
			l-0.134,43.367l-2.059,2.813C795.191,379.343,779.636,400,741.459,400c-31.128,0-56.446-28.103-56.446-62.651
			s26.03-62.651,58.022-62.651c29.691,0,49.098,14.726,54.644,41.465l-21,4.356c-2.169-10.461-8.021-24.373-33.644-24.373
			c-20.168,0-36.578,18.485-36.578,41.204c0,22.721,15.703,41.204,34.999,41.204c20.094,0,30.783-7.038,35.011-10.728l0.045-13.976
			l-29.019,0.16l-0.119-21.447L798.027,332.283z M279.536,88.316c0,13.813-6.492,36.986-49.981,36.986
			c-43.484,0-49.974-23.173-49.974-36.986h21.447c0,4.65,0,15.539,28.527,15.539c28.533,0,28.533-10.888,28.533-15.539
			c0-4.651,0-15.539-28.533-15.539c-43.484,0-49.974-22.799-49.974-36.389S186.071,0,229.555,0
			c43.489,0,49.981,22.799,49.981,36.389h-21.448c0-4.471,0-14.942-28.533-14.942c-28.527,0-28.527,10.47-28.527,14.942
			c0,4.472,0,14.941,28.527,14.941C273.044,51.329,279.536,74.504,279.536,88.316z M385.519,0v21.447h-39.371v103.855h-21.447
			V21.447h-39.359V0H385.519z M506.62,62.65c0,40.401-21.661,62.652-60.992,62.652s-60.992-22.251-60.992-62.652
			c0-40.399,21.661-62.65,60.992-62.65S506.62,22.251,506.62,62.65z M485.173,62.65c0-28.496-12.199-41.203-39.545-41.203
			c-27.345,0-39.545,12.707-39.545,41.203c0,28.498,12.2,41.205,39.545,41.205C472.977,103.855,485.173,91.148,485.173,62.65z
			 M620.419,38.369c0,21.158-17.988,38.369-40.096,38.369h-38.012v48.564h-21.448V0h59.46C602.431,0,620.419,17.211,620.419,38.369z
			 M598.971,38.369c0-9.33-8.364-16.922-18.648-16.922h-38.012v33.844h38.012C590.607,55.291,598.971,47.699,598.971,38.369z"/>
		<g style="clip-path:url(#SVGID_00000155127398099409415190000010224916610862725513_);">
			
				<linearGradient id="SVGID_00000016071863200550202510000009485029256691551915_" gradientUnits="userSpaceOnUse" x1="487.9445" y1="400" x2="487.9445" y2="158.87">
				<stop  offset="0" style="stop-color:#FFAC81"/>
				<stop  offset="1" style="stop-color:#FF8A73"/>
			</linearGradient>
			<path style="fill-rule:evenodd;clip-rule:evenodd;fill:url(#SVGID_00000016071863200550202510000009485029256691551915_);" d="
				M527.049,400h-40.63c-0.78-11.88-2.78-18.6-2.78-18.6s-11.76-1.17-13.87-2.48c-6.91-4.32-12.56-14.59-15.38-22.2
				c-0.9-2.38-1.49-4.51-1.77-6.11c-1.17-6.69,6.98-21.4,6.98-35.75c0-14.35-5.82-35.94-5.82-35.94l4.65-5.65
				c-1.74-4.25-3.21-9.13-4.45-14.02c-3.55-13.98-5.14-28.06-5.14-28.06l8.01-3.59l5.65-2.53l12.87,39.37l1.52-1.87
				c0.87-12.2-3.49-44.84-3.49-44.84s-2.53-0.46-5.88-5.3c-0.95-1.36-2.3-4.7-3.73-9.03c-3.64-11.09-7.71-28.51-6.3-34.79
				c1.96-8.72,11.98-9.74,11.98-9.74c4.37,15.12,17.74,39.54,19.19,44.62c1.46,5.09,2.19,9.59,2.19,9.59
				c1.3,10.69,12.42,39.25,13.73,43.81c1.31,4.56,4.73,31.05,6.46,45.57c1.75,14.53,8.15,40.12,10.47,54.06
				C522.81,364.32,525.199,384.12,527.049,400z"/>
			
				<linearGradient id="SVGID_00000058567635942061531330000016069460764068197763_" gradientUnits="userSpaceOnUse" x1="474.5349" y1="371.0719" x2="474.5349" y2="203.396">
				<stop  offset="0" style="stop-color:#DD899F"/>
				<stop  offset="0.9944" style="stop-color:#D360AE"/>
			</linearGradient>
			
				<path style="opacity:0.3;fill-rule:evenodd;clip-rule:evenodd;fill:url(#SVGID_00000058567635942061531330000016069460764068197763_);" d="
				M481.399,286.676c2.32,9.688,10.431,26.036,10.431,26.036l-8.427,7.628l-4.237,2.186v48.547c0,0-14.615-1.186-24.775-14.345
				c-0.209-0.262-0.41-0.532-0.61-0.811c-5.721-7.822-3.148-56.002,0.201-96.674c0.951-11.511,1.953-22.411,2.86-31.638l5.659-2.529
				l12.863,39.364l1.526-1.866c0.872-12.208-3.488-44.84-3.488-44.84s-2.529-0.462-5.886-5.302c-0.942-1.36-2.293-4.709-3.724-9.034
				c3.741,2.616,10.287,7.102,11.499,7.233c1.962,0.218,5.523-3.212,5.523-3.212l-2.834,5.886c0,0,11.188,25.917,11.267,43.585
				c0,0,3.497,0,9.418,0c0,0-11.528,3.087-16.325,7.552C482.341,264.439,479.071,276.987,481.399,286.676z"/>
			
				<linearGradient id="SVGID_00000032620686096384421300000003443465622692723616_" gradientUnits="userSpaceOnUse" x1="473.8234" y1="319.7639" x2="473.8234" y2="280.5788">
				<stop  offset="0" style="stop-color:#DD899F"/>
				<stop  offset="0.9944" style="stop-color:#D360AE"/>
			</linearGradient>
			
				<path style="opacity:0.3;fill-rule:evenodd;clip-rule:evenodd;fill:url(#SVGID_00000032620686096384421300000003443465622692723616_);" d="
				M465.409,280.579c0,0,14.972,5.126,18.241,13.285c3.269,8.159,8.181,18.848,8.181,18.848l-10.144,7.052l-25.871-14.679
				L465.409,280.579z"/>
			
				<linearGradient id="SVGID_00000174594710462870207270000014856313673158655127_" gradientUnits="userSpaceOnUse" x1="348.35" y1="400" x2="348.35" y2="130.7486">
				<stop  offset="0" style="stop-color:#FFAC81"/>
				<stop  offset="1" style="stop-color:#FF8A73"/>
			</linearGradient>
			<path style="fill-rule:evenodd;clip-rule:evenodd;fill:url(#SVGID_00000174594710462870207270000014856313673158655127_);" d="
				M423.749,193.08c0,4.77-18.31,29.04-21.51,32.17c-3.21,3.11-31.98,34.44-32.26,38.68c-0.3,4.26-3.06,9.93-3.06,9.93
				s1.69,13.79,2.81,26.71c0.58,6.56,1,12.88,1,17.06c0,1.49-0.06,2.71-0.17,3.57c-0.33,2.21-1.3,4.76-2.73,7.38
				c0.01,0.01,0,0.01,0,0.02c-3.72,6.77-10.47,13.96-16.76,17.03c0,0-0.9,16.97-3.77,37.24c-0.78,5.55-1.73,11.36-2.84,17.13h-49.59
				c4.94-15.93,11.15-37.64,14.64-56c0,0-0.01-0.01-0.01-0.02c-0.63-0.5-15.13-12.08-26.12-27.56c-4.41-6.24-8.27-13.09-10.42-20.1
				c0,0-0.51-6.76,6.18-14.03c0,0,5.38-18.24,7.56-34.16s1.73-18.08,2.62-21.79c0.86-3.72,4.79-11.1,7.4-17.76
				c2.62-6.66,8.72-28.03,9.49-31.3c0.76-3.27,22.56-45.79,24.52-46.44c1.96-0.65,7.63,2.18,8.51,8.07
				c0.51,3.53-1.39,16.84-5.08,28.15c-1.23,3.77-2.65,7.32-4.25,10.21s-3.36,5.13-5.28,6.27c0,0-5.02,16.02-6.33,26.02
				c-1.31,10.02-1.52,18.57-1.52,18.57h4.15c0,0,15.9-39.65,22.89-54.73c6.97-15.09,15.69-35.79,17.65-36.89
				c1.96-1.08,8.29,1.96,9.38,6.54c1.08,4.58-4.8,36.74-12.21,41.26l-13.23,39.48c1.33-3.13,22.75-53.39,25.56-59.77
				c2.93-6.58,6.19-15.74,7.29-15.96c1.09-0.21,7.19,1.1,8.28,7.64c1.09,6.54-4.79,32.54-11.34,37.74l-8.06,37.26l0.22,5.51h4.35
				l22.09-21.98c0,0,2.04-6.56,4.37-9.44c2.32-2.87,14.53-18.43,17.15-19.23C417.93,184.76,423.749,188.32,423.749,193.08z"/>
			<path style="fill-rule:evenodd;clip-rule:evenodd;fill:#CE5964;" d="M473.402,217.732c0,0,4.505-7.7,7.412-10.316
				c0,0-7.994,3.924-11.046,7.994C469.769,215.41,471.804,217.148,473.402,217.732z"/>
			
				<linearGradient id="SVGID_00000175309048265158235480000002036695832114653868_" gradientUnits="userSpaceOnUse" x1="460.7195" y1="356.5199" x2="460.7195" y2="340.8491">
				<stop  offset="0" style="stop-color:#DD899F"/>
				<stop  offset="0.9944" style="stop-color:#D360AE"/>
			</linearGradient>
			
				<polygon style="opacity:0.3;fill-rule:evenodd;clip-rule:evenodd;fill:url(#SVGID_00000175309048265158235480000002036695832114653868_);" points="
				453.781,355.918 467.658,356.52 464.634,340.849 			"/>
			
				<linearGradient id="SVGID_00000052796129353927875310000000523293819520473243_" gradientUnits="userSpaceOnUse" x1="339.0592" y1="343.0985" x2="339.0592" y2="335.1139">
				<stop  offset="0" style="stop-color:#DD899F"/>
				<stop  offset="0.9944" style="stop-color:#D360AE"/>
			</linearGradient>
			
				<path style="opacity:0.3;fill-rule:evenodd;clip-rule:evenodd;fill:url(#SVGID_00000052796129353927875310000000523293819520473243_);" d="
				M325.586,337.326c0,0,5.145-3.166,14.956-1.923c9.81,1.243,11.991,7.695,11.991,7.695S345.73,334.299,325.586,337.326z"/>
			
				<linearGradient id="SVGID_00000058547562675764437760000016404967035402908304_" gradientUnits="userSpaceOnUse" x1="325.5862" y1="382.8731" x2="325.5862" y2="316.3363">
				<stop  offset="0" style="stop-color:#DD899F"/>
				<stop  offset="0.9944" style="stop-color:#D360AE"/>
			</linearGradient>
			
				<path style="opacity:0.3;fill-rule:evenodd;clip-rule:evenodd;fill:url(#SVGID_00000058547562675764437760000016404967035402908304_);" d="
				M367.836,328.545c0,0,0,0.009-0.009,0.026c0.009,0.009,0,0.009,0,0.017c-3.715,6.776-10.465,13.979-16.752,17.04
				c0,0-0.916,16.979-3.776,37.245c-4.718-14.912-16.072-40.785-37.785-38.876c0,0-0.009-0.009-0.017-0.017
				c-0.637-0.453-17.642-12.688-26.118-27.556c-0.017-0.026-0.035-0.061-0.044-0.087c0.427,0.218,14.101,7.273,22.394,8.223
				c8.433,0.968,26.527-3.227,38.518-2.878c11.991,0.357,19.909,7.761,19.909,7.761L367.836,328.545z"/>
			<path style="fill-rule:evenodd;clip-rule:evenodd;fill:#CE5964;" d="M292.361,226.551c0,0,12.209,8.987,49.997,7.776
				l-18.458-5.334l-2.979-0.855h-4.142C316.779,228.138,308.349,230.439,292.361,226.551z"/>
			
				<linearGradient id="SVGID_00000181798196972226729270000017329423496257395636_" gradientUnits="userSpaceOnUse" x1="359.6917" y1="300.5786" x2="359.6917" y2="136.2914">
				<stop  offset="0" style="stop-color:#DD899F"/>
				<stop  offset="0.9944" style="stop-color:#D360AE"/>
			</linearGradient>
			
				<path style="opacity:0.3;fill-rule:evenodd;clip-rule:evenodd;fill:url(#SVGID_00000181798196972226729270000017329423496257395636_);" d="
				M423.752,193.082c0,4.761-18.313,29.03-21.513,32.161c-2.075,2.023-14.947,15.95-23.789,26.623c0,0,0,0,0,0.009
				c-4.779,5.756-8.38,10.569-8.476,12.06c-0.288,4.256-3.052,9.924-3.052,9.924s1.639,13.421,2.764,26.179
				c0.017,0.174,0.026,0.358,0.043,0.532v0.009c-30.469-3.942-47.5-21.4-47.5-21.4l-2.913,8.197l-0.305-8.947l-2.668-17.284
				l0.654-6.558l2.32-23.24c-5.904-2.154-23.685-2.355-23.685-2.355l4.74-0.878c0,0,8.561-9.624,10.281-17.865
				c3.51-16.811,3.074-32.642,3.074-32.642c4.944,1.884,10.101,2.362,10.101,2.362c4.578-1.744,10.139-12.534,10.331-12.9
				c-2.459,7.534-5.694,14.179-9.531,16.473c0,0-5.014,16.011-6.322,26.022c-1.308,10.011-1.526,18.574-1.526,18.574h4.142
				c0,0,15.915-39.652,22.891-54.738c6.976-15.086,15.697-35.797,17.659-36.887c1.962-1.09,8.284,1.962,9.375,6.54
				c1.09,4.578-4.796,36.739-12.209,41.265l-13.238,39.468c1.334-3.122,22.751-53.386,25.577-59.761
				c2.921-6.584,6.192-15.74,7.282-15.958c1.09-0.218,7.194,1.09,8.284,7.63c1.09,6.54-4.796,32.536-11.336,37.742l-8.066,37.254
				l0.218,5.52h4.36l22.089-21.984c0,0,2.041-6.558,4.36-9.436c2.328-2.878,14.537-18.426,17.153-19.229
				C417.935,184.763,423.752,188.321,423.752,193.082z"/>
			
				<linearGradient id="SVGID_00000132083910393487387010000004879687350977477530_" gradientUnits="userSpaceOnUse" x1="299.2245" y1="282.2919" x2="299.2245" y2="228.0176">
				<stop  offset="0" style="stop-color:#DD899F"/>
				<stop  offset="0.9944" style="stop-color:#D360AE"/>
			</linearGradient>
			
				<path style="opacity:0.3;fill-rule:evenodd;clip-rule:evenodd;fill:url(#SVGID_00000132083910393487387010000004879687350977477530_);" d="
				M279.133,282.292c4.974-16.151,14.46-40.55,15.902-54.274c0,0,17.403,1.969,24.282,3.33l-0.002,31.651L279.133,282.292z"/>
			
				<linearGradient id="SVGID_00000037683240892336533240000018011840573576596647_" gradientUnits="userSpaceOnUse" x1="332.0398" y1="318.5654" x2="332.0398" y2="272.1152">
				<stop  offset="0.0056" style="stop-color:#FF8166"/>
				<stop  offset="1" style="stop-color:#D9707E"/>
			</linearGradient>
			<path style="fill-rule:evenodd;clip-rule:evenodd;fill:url(#SVGID_00000037683240892336533240000018011840573576596647_);" d="
				M319.011,278.429c0,0,12.867,5.829,19.423,16.911c5.97,10.092,7.122,23.225,7.122,23.225s0.252-14.529-7.359-28.091
				c-7.611-13.563-19.674-18.359-19.674-18.359L319.011,278.429z"/>
			
				<linearGradient id="SVGID_00000098917160900610781290000005920341547866639258_" gradientUnits="userSpaceOnUse" x1="347.3959" y1="300.5786" x2="347.3959" y2="249.6199">
				<stop  offset="0" style="stop-color:#DD899F"/>
				<stop  offset="0.9944" style="stop-color:#D360AE"/>
			</linearGradient>
			
				<path style="opacity:0.3;fill-rule:evenodd;clip-rule:evenodd;fill:url(#SVGID_00000098917160900610781290000005920341547866639258_);" d="
				M378.449,251.866c0,0,0,0,0,0.009c-4.779,5.756-8.38,10.569-8.476,12.06c-0.288,4.256-3.052,9.924-3.052,9.924
				s1.639,13.421,2.764,26.179c0.017,0.174,0.026,0.358,0.043,0.532v0.009c-30.469-3.942-47.5-21.4-47.5-21.4l-2.913,8.197
				l-0.305-8.947l-2.668-17.284l0.654-6.558l6.471-1.544C323.467,253.044,355.052,246.198,378.449,251.866z"/>
			<g>
				
					<linearGradient id="SVGID_00000114043373334335944630000010664779255776248987_" gradientUnits="userSpaceOnUse" x1="471.5081" y1="189.6949" x2="471.5081" y2="148.3822">
					<stop  offset="0.0056" style="stop-color:#281742"/>
					<stop  offset="1" style="stop-color:#322D45"/>
				</linearGradient>
				<path style="fill-rule:evenodd;clip-rule:evenodd;fill:url(#SVGID_00000114043373334335944630000010664779255776248987_);" d="
					M471.291,148.382c0,0,1.831,3.623,2.234,5.233s-0.537,30.992-1.476,32.736c-0.939,1.744-2.653,3.343-2.653,3.343
					L471.291,148.382z"/>
				
					<linearGradient id="SVGID_00000160160429647066877410000008158420976787561616_" gradientUnits="userSpaceOnUse" x1="469.7689" y1="217.7323" x2="469.7689" y2="197.9562">
					<stop  offset="0.0056" style="stop-color:#281742"/>
					<stop  offset="1" style="stop-color:#322D45"/>
				</linearGradient>
				<path style="fill-rule:evenodd;clip-rule:evenodd;fill:url(#SVGID_00000160160429647066877410000008158420976787561616_);" d="
					M469.365,197.956c0,0,1.744,3.626,1.744,4.833c0,1.207-0.405,11.022-1.107,12.377c-0.702,1.355-1.573,2.566-1.573,2.566
					L469.365,197.956z"/>
				
					<radialGradient id="SVGID_00000068649005551262208210000004856658975374748586_" cx="402.6997" cy="119.6663" r="49.8844" gradientUnits="userSpaceOnUse">
					<stop  offset="0" style="stop-color:#00FFFF"/>
					<stop  offset="0.9944" style="stop-color:#26C3FF"/>
				</radialGradient>
				<path style="fill-rule:evenodd;clip-rule:evenodd;fill:url(#SVGID_00000068649005551262208210000004856658975374748586_);" d="
					M332.406,125.637c0,0,2.654-7.698,9.027-9.368c13.539-3.548,116.964-2.672,121.025-1.781c4.06,0.891,8.891,4.633,10.536,9.998
					L332.406,125.637z"/>
				
					<radialGradient id="SVGID_00000152265584677802825760000005188356259090269631_" cx="402.4612" cy="233.3291" r="96.2604" gradientUnits="userSpaceOnUse">
					<stop  offset="0" style="stop-color:#00D1FF"/>
					<stop  offset="0.9944" style="stop-color:#2681E0"/>
				</radialGradient>
				<path style="fill-rule:evenodd;clip-rule:evenodd;fill:url(#SVGID_00000152265584677802825760000005188356259090269631_);" d="
					M331.31,131.051c0,0,7.709,206.746,8.85,210.72c1.141,3.974,7.695,6.681,11.716,7.052c4.021,0.371,97.002,1.049,101.388,0
					s9.046-4.643,9.868-9.204c0.822-4.561,10.69-209.988,10.485-212.626c-0.206-2.638-2.33-7.576-8.429-9.132
					c-4.347-1.109-118.953-0.534-125.028,0.812C335.085,119.797,331.106,125.605,331.31,131.051z"/>
				
					<linearGradient id="SVGID_00000075139448562406967620000016471255654262837951_" gradientUnits="userSpaceOnUse" x1="402.4612" y1="346.6097" x2="402.4612" y2="120.0109">
					<stop  offset="0" style="stop-color:#603082"/>
					<stop  offset="0.9944" style="stop-color:#2A0E51"/>
				</linearGradient>
				<path style="fill-rule:evenodd;clip-rule:evenodd;fill:url(#SVGID_00000075139448562406967620000016471255654262837951_);" d="
					M334.155,133.466c0,0,7.429,201.832,8.528,205.712c1.1,3.879,7.415,6.522,11.29,6.885c3.875,0.362,92.959,1.024,97.185,0
					c4.226-1.024,8.716-4.533,9.509-8.986c0.793-4.453,10.301-204.997,10.103-207.573c-0.198-2.575-2.677-7.485-8.122-8.914
					c-4.185-1.099-114.111-0.521-119.965,0.792C337.794,122.48,333.959,128.15,334.155,133.466z"/>
				<g>
					
						<linearGradient id="SVGID_00000098220256890580138840000011906946177387455376_" gradientUnits="userSpaceOnUse" x1="391.1503" y1="342.9964" x2="391.1503" y2="127.3001" gradientTransform="matrix(1.0465 0 0 0.9627 -6.8774 8.1214)">
						<stop  offset="0" style="stop-color:#D94848"/>
						<stop  offset="1" style="stop-color:#C20F0F"/>
					</linearGradient>
					<path style="fill-rule:evenodd;clip-rule:evenodd;fill:url(#SVGID_00000098220256890580138840000011906946177387455376_);" d="
						M406.022,338.322c-38.912,0-52.353-0.041-54.897,0c-4.948,0.08-5.659-2.853-6.264-4.199
						c-0.938-6.996-5.642-119.781-8.6-194.538c-0.132-3.317,2.568-7.028,5.549-7.664c5.493-1.172,25.096-1.248,75.506-1.248
						c30.822,0,43.991,0.249,46.151,0.489c4.439,1.001,4.549,3.129,5.201,5.07c-0.055,8.743-9.625,191.754-10.266,196.214
						c-0.479,2.496-1.343,4.824-6.551,5.437c-1.025,0.114-7.357,0.439-45.822,0.439
						C406.025,338.322,406.025,338.322,406.022,338.322z"/>
				</g>
				<g>
					
						<linearGradient id="SVGID_00000052819265332166465490000012508203207318191744_" gradientUnits="userSpaceOnUse" x1="405.8355" y1="128.9253" x2="405.8355" y2="121.8145">
						<stop  offset="0.0056" style="stop-color:#514365"/>
						<stop  offset="1" style="stop-color:#49455A"/>
					</linearGradient>
					<path style="fill-rule:evenodd;clip-rule:evenodd;fill:url(#SVGID_00000052819265332166465490000012508203207318191744_);" d="
						M409.391,125.37c0,1.964-1.592,3.555-3.555,3.555c-1.964,0-3.555-1.592-3.555-3.555s1.592-3.555,3.555-3.555
						C407.799,121.814,409.391,123.406,409.391,125.37z"/>
					
						<linearGradient id="SVGID_00000103946760264849992690000004540522756666519962_" gradientUnits="userSpaceOnUse" x1="405.8356" y1="127.2534" x2="405.8356" y2="123.4864">
						<stop  offset="0.0056" style="stop-color:#90609A"/>
						<stop  offset="1" style="stop-color:#9783C0"/>
					</linearGradient>
					
						<circle style="opacity:0.6;fill-rule:evenodd;clip-rule:evenodd;fill:url(#SVGID_00000103946760264849992690000004540522756666519962_);" cx="405.836" cy="125.37" r="1.883"/>
					<path style="fill-rule:evenodd;clip-rule:evenodd;fill:#A498D8;" d="M407.719,126.542c0,0.393-0.319,0.711-0.711,0.711
						c-0.393,0-0.711-0.319-0.711-0.711s0.318-0.711,0.711-0.711C407.4,125.831,407.719,126.149,407.719,126.542z"/>
				</g>
				
					<linearGradient id="SVGID_00000041287012672635868210000015468281413306963357_" gradientUnits="userSpaceOnUse" x1="370.4319" y1="345.8784" x2="370.4319" y2="290.5714">
					<stop  offset="0.1411" style="stop-color:#721D5B"/>
					<stop  offset="1" style="stop-color:#933B3B"/>
				</linearGradient>
				
					<path style="opacity:0.5;fill-rule:evenodd;clip-rule:evenodd;fill:url(#SVGID_00000041287012672635868210000015468281413306963357_);" d="
					M341.395,290.571l58.073,55.307l-45.123-0.398c0,0-7.473-0.373-10.55-6.434L341.395,290.571z"/>
				
					<linearGradient id="SVGID_00000119804631108123129430000005180351560327054242_" gradientUnits="userSpaceOnUse" x1="421.4541" y1="248.1341" x2="421.4541" y2="120.8343">
					<stop  offset="0.1411" style="stop-color:#721D5B"/>
					<stop  offset="1" style="stop-color:#933B3B"/>
				</linearGradient>
				
					<path style="opacity:0.5;fill-rule:evenodd;clip-rule:evenodd;fill:url(#SVGID_00000119804631108123129430000005180351560327054242_);" d="
					M372.664,121.243l91.99,126.891l5.59-117.826c0,0-0.946-6.988-8.122-8.914C457.785,120.23,372.664,121.243,372.664,121.243z"/>
			</g>
			<path style="opacity:0.5;fill-rule:evenodd;clip-rule:evenodd;fill:#962765;" d="M336.415,262.53c0,0,10.161-2.564,18.881-11.532
				c8.72-8.968,8.781-20.967,8.781-20.967l-28.048,22.982L336.415,262.53z"/>
			<g>
				
					<linearGradient id="SVGID_00000022547580093265653350000011276145559741677482_" gradientUnits="userSpaceOnUse" x1="319.3138" y1="312.614" x2="319.3138" y2="219.2085">
					<stop  offset="0" style="stop-color:#FFAE7F"/>
					<stop  offset="1" style="stop-color:#FF9D84"/>
				</linearGradient>
				<path style="fill-rule:evenodd;clip-rule:evenodd;fill:url(#SVGID_00000022547580093265653350000011276145559741677482_);" d="
					M364.156,229.969c-2.32,10.752-9.636,15.932-14.467,18.566c-3.671,1.997-14.718,5.267-25.139,6.619l-3.961,1.412
					c-1.892,4.796-2.067,20.083-2.067,20.083s0.227,0.671,0.488,1.779c0,0,0,0,0,0.009c0.768,3.192,1.875,10.011-0.924,15.173
					c-3.776,6.976-17.005,20.667-27.033,18.836c-6.636-1.212-14.894-10.168-16.351-16.133c-1.456-5.956,4.43-14.022,4.43-14.022
					c8.432-4.657,21.513-28.341,22.385-31.106c0.811-2.564,2.232-7.238,3.828-9.061l0.384-0.384
					c1.744-1.456,12.793-5.529,27.33-10.761c14.528-5.232,23.685-11.773,23.685-11.773
					C363.72,221.537,364.156,229.969,364.156,229.969z"/>
				
					<linearGradient id="SVGID_00000160911272823651530000000014570066128471528329_" gradientUnits="userSpaceOnUse" x1="334.9714" y1="251.8649" x2="334.9714" y2="219.2114">
					<stop  offset="0" style="stop-color:#FFAE7F"/>
					<stop  offset="1" style="stop-color:#FFB384"/>
				</linearGradient>
				<path style="fill-rule:evenodd;clip-rule:evenodd;fill:url(#SVGID_00000160911272823651530000000014570066128471528329_);" d="
					M305.733,241.739c0,0,3.73,8.091,10.561,10.126c0,0,20.89-3.532,32.057-6.783c15.727-4.578,15.809-15.115,15.809-15.115
					s1.141-8.778-7.412-10.755c0,0-7.594,4.833-21.776,10.501C321.902,234.936,310.82,238.614,305.733,241.739z"/>
				<g>
					
						<linearGradient id="SVGID_00000059274771025366349050000009058382696003876239_" gradientUnits="userSpaceOnUse" x1="349.9943" y1="238.7694" x2="349.9943" y2="219.2085">
						<stop  offset="0" style="stop-color:#FFB693"/>
						<stop  offset="1" style="stop-color:#FFCF9C"/>
					</linearGradient>
					<path style="fill-rule:evenodd;clip-rule:evenodd;fill:url(#SVGID_00000059274771025366349050000009058382696003876239_);" d="
						M364.165,229.952l-0.009,0.018c0,0-0.026,0.026-0.078,0.061c-5.808,5.058-14.476,9.383-20.99,8.659
						c-1.631-0.183-3.061-0.584-4.229-1.125c-3.506-1.631-4.709-4.543-2.311-6.723c0.087-0.079,0.192-0.166,0.296-0.244
						c1.204-0.994,3.593-2.477,6.331-4.046c0.174-0.105,0.358-0.209,0.532-0.314c1.517-0.863,3.104-1.744,4.639-2.581
						c4.456-2.424,8.398-4.447,8.398-4.447C367.383,221.624,364.322,229.568,364.165,229.952z"/>
					<path style="fill-rule:evenodd;clip-rule:evenodd;fill:#FFD8CB;" d="M353.733,220.777c0,0,7.721,0.302,9.255,10.123l1.09-0.87
						c0,0,4.181-8.027-7.334-10.822L353.733,220.777z"/>
					<path style="fill-rule:evenodd;clip-rule:evenodd;fill:#FFFFFF;" d="M344.793,226.551c0,0,8.066-5.014,12.536-6.213
						C357.328,220.338,349.845,225.367,344.793,226.551z"/>
					<path style="fill-rule:evenodd;clip-rule:evenodd;fill:#FFFFFF;" d="M343.088,238.619l-4.229-1.125
						c-3.506-1.631-4.709-4.543-2.311-6.723c0.087-0.079,0.192-0.166,0.296-0.244l1.003-0.105c0,0,5.163-0.82,6.941,1.221
						C346.576,233.675,343.088,238.619,343.088,238.619z"/>
					<path style="fill-rule:evenodd;clip-rule:evenodd;fill:#E37C69;" d="M364.078,230.031c-5.808,5.058-14.476,9.383-20.99,8.659
						c-6.54-0.733-9.741-4.944-6.54-7.848c1.064-0.968,3.645-2.581,6.628-4.29c-3.096,1.892-6.41,4.264-6.235,5.668
						c0.331,2.616,2.69,6.395,11.411,5.305C356.53,236.504,363.267,230.667,364.078,230.031z"/>
				</g>
				
					<linearGradient id="SVGID_00000001635242799567224410000017832654657124589209_" gradientUnits="userSpaceOnUse" x1="297.5303" y1="312.614" x2="297.5303" y2="241.742">
					<stop  offset="0" style="stop-color:#FF89AB"/>
					<stop  offset="0.9944" style="stop-color:#EA609A"/>
				</linearGradient>
				
					<path style="opacity:0.2;fill-rule:evenodd;clip-rule:evenodd;fill:url(#SVGID_00000001635242799567224410000017832654657124589209_);" d="
					M319.011,278.438c0.768,3.192,1.875,10.011-0.924,15.173c-3.776,6.976-17.005,20.667-27.033,18.836
					c-6.636-1.212-14.894-10.168-16.351-16.133c-1.456-5.956,4.43-14.022,4.43-14.022c8.432-4.657,21.513-28.341,22.385-31.106
					c0.811-2.564,2.232-7.238,3.828-9.061l0.384-0.384c2.259,8.206,14.86,14.825,14.86,14.825
					c-1.892,4.796-2.067,20.083-2.067,20.083s0.227,0.671,0.488,1.779C319.011,278.429,319.011,278.429,319.011,278.438z"/>
				
					<linearGradient id="SVGID_00000000207308778028704690000005072100490239019917_" gradientUnits="userSpaceOnUse" x1="320.5336" y1="258.366" x2="320.5336" y2="252.3511">
					<stop  offset="0.0056" style="stop-color:#FF8166"/>
					<stop  offset="1" style="stop-color:#D9707E"/>
				</linearGradient>
				<path style="fill-rule:evenodd;clip-rule:evenodd;fill:url(#SVGID_00000000207308778028704690000005072100490239019917_);" d="
					M326.905,254.819l-5.112,0.291c0,0-3.597,0.184-7.63-2.759c0,0,2.523,6.015,5.895,6.015L326.905,254.819z"/>
				
					<linearGradient id="SVGID_00000133488728830994230250000005313938096498634429_" gradientUnits="userSpaceOnUse" x1="287.9232" y1="303.9398" x2="287.9232" y2="274.7449">
					<stop  offset="0" style="stop-color:#FFAE7F"/>
					<stop  offset="1" style="stop-color:#FFB384"/>
				</linearGradient>
				<path style="fill-rule:evenodd;clip-rule:evenodd;fill:url(#SVGID_00000133488728830994230250000005313938096498634429_);" d="
					M274.471,298.001c0,0,6.324,8.012,16.994,5.425c9.326-5.34,10.779-21.613,10.779-21.613s-5.813-8.932-13.771-6.713
					C288.474,275.099,269.358,289.352,274.471,298.001z"/>
				<circle style="fill-rule:evenodd;clip-rule:evenodd;fill:#FFD8CB;" cx="312.085" cy="249.566" r="1.432"/>
			</g>
			<path style="fill-rule:evenodd;clip-rule:evenodd;fill:#CE5964;" d="M310.653,175.44c4.264,4.036,8.229,6.49,13.974,8.102
				l2.587-2.281C327.214,181.262,317.614,180.006,310.653,175.44z"/>
			<path style="fill-rule:evenodd;clip-rule:evenodd;fill:#CE5964;" d="M483.404,320.34c0,0,8.602-4.936,13.399-15.255
				c0,0-10.537,12.219-16.896,13.667L483.404,320.34z"/>
			<path style="fill-rule:evenodd;clip-rule:evenodd;fill:#CE5964;" d="M466.965,269.027c0,0,23.607-10.196,31.7-12.14h-8.04
				c0,0-6.649,5.795-13.735,5.686l-9.792,3.772L466.965,269.027z"/>
			<path style="opacity:0.5;fill-rule:evenodd;clip-rule:evenodd;fill:#962765;" d="M417.905,283.124
				c0,0,1.359,20.423,12.261,37.216c10.901,16.793,32.967,19.279,32.967,19.279l3.041-26.906L417.905,283.124z"/>
			<g>
				
					<linearGradient id="SVGID_00000063631104720375615260000010033504942606745782_" gradientUnits="userSpaceOnUse" x1="458.1982" y1="376.9015" x2="458.1982" y2="271.485">
					<stop  offset="0" style="stop-color:#FFAE7F"/>
					<stop  offset="1" style="stop-color:#FF9D84"/>
				</linearGradient>
				<path style="fill-rule:evenodd;clip-rule:evenodd;fill:url(#SVGID_00000063631104720375615260000010033504942606745782_);" d="
					M489.247,376.81c-2.616,0.584-10.901-1.674-15.627-5.45c-4.726-3.776-10.465-35.326-11.555-37.725
					c-1.09-2.389-13.229-16.543-13.229-16.543s-0.018-0.009-0.044-0.009c-0.671-0.174-9.584-2.459-13.456-4.578
					c-0.009-0.009-0.017-0.009-0.017-0.009c-4.543-2.511-12.924-15.234-16.211-24.766v-0.009c-0.916-2.642-1.43-5.04-1.369-6.906
					c0.288-8.581,7.552-9.889,9.732-9.156c2.18,0.724,17.45,18.749,22.717,23.501c5.337,4.831,9.113,8.18,10.569,9.636
					c0,0,0.009,0.009,0.035,0.035c1.639,1.57,16.996,13.054,20.894,14.929c3.924,1.892,7.561-0.436,7.561-0.436
					s8.136,7.848,9.296,25.289C499.712,362.055,491.863,376.226,489.247,376.81z"/>
				<g>
					
						<linearGradient id="SVGID_00000162336676103619739260000007270378238846422144_" gradientUnits="userSpaceOnUse" x1="430.1612" y1="294.5887" x2="430.1612" y2="271.659">
						<stop  offset="0" style="stop-color:#FFB693"/>
						<stop  offset="1" style="stop-color:#FFCF9C"/>
					</linearGradient>
					<path style="fill-rule:evenodd;clip-rule:evenodd;fill:url(#SVGID_00000162336676103619739260000007270378238846422144_);" d="
						M442.34,290.914c-0.785,1.535-3.2,3.445-6.846,3.654c-2.302,0.139-5.101-0.401-8.31-2.128
						c-3.994-2.154-6.462-5.485-7.866-8.031c-1.038-1.875-1.5-3.331-1.57-3.558c0-0.026-0.009-0.035-0.009-0.035
						c2.102-9.34,9.732-9.156,9.732-9.156l1.927,1.962h0.009l9.322,9.488l0.671,0.68c0,0,2.32,2.538,2.991,4.866
						C442.637,289.475,442.672,290.26,442.34,290.914z"/>
					<path style="fill-rule:evenodd;clip-rule:evenodd;fill:#FFD8CB;" d="M429.399,273.621
						c-9.828,0.593-10.081,10.787-10.081,10.787c-1.134-2.049-1.578-3.593-1.578-3.593c2.102-9.34,9.732-9.156,9.732-9.156
						L429.399,273.621z"/>
					<path style="fill-rule:evenodd;clip-rule:evenodd;fill:#FFFFFF;" d="M442.34,290.914c-0.785,1.535-3.2,3.445-6.846,3.654
						c0,0-1.535-4.814,1.718-7.142c2.686-1.927,4.604,0.375,5.18,1.229C442.637,289.475,442.672,290.26,442.34,290.914z"/>
					<path style="fill-rule:evenodd;clip-rule:evenodd;fill:#E37C69;" d="M442.34,290.914c-0.785,1.535-3.2,3.445-6.846,3.654
						c-2.302,0.139-5.101-0.401-8.31-2.128c-3.994-2.154-6.462-5.485-7.866-8.031c-1.038-1.875-1.5-3.331-1.57-3.558
						c0.244,0.558,3.811,8.572,10.892,11.441c7.334,2.982,13.02-1.081,13.15-3.41c0.087-1.587-1.823-4.238-3.061-5.773l0.671,0.68
						c0,0,2.32,2.538,2.991,4.866C442.637,289.475,442.672,290.26,442.34,290.914z"/>
					<path style="fill-rule:evenodd;clip-rule:evenodd;fill:#FFFFFF;" d="M430.166,278.034c0,0,3.123,4.422,5.376,5.09
						C435.541,283.124,433.656,279.324,430.166,278.034z"/>
				</g>
				
					<linearGradient id="SVGID_00000142867328906657566860000004731020779333834115_" gradientUnits="userSpaceOnUse" x1="435.3378" y1="340.8491" x2="498.6613" y2="340.8491">
					<stop  offset="0.0056" style="stop-color:#B060F4"/>
					<stop  offset="1" style="stop-color:#FFB9CD"/>
				</linearGradient>
				
					<path style="opacity:0.2;fill-rule:evenodd;clip-rule:evenodd;fill:url(#SVGID_00000142867328906657566860000004731020779333834115_);" d="
					M489.247,376.81c-2.616,0.584-10.901-1.674-15.627-5.45c-4.726-3.776-10.465-35.326-11.555-37.725
					c-1.09-2.389-13.229-16.543-13.229-16.543s-9.47-2.381-13.499-4.587c0.462,0.166,8.781,3.104,15.27,2.354
					c6.662-0.767,10.15-10.063,10.15-10.063s0.009,0.009,0.035,0.035c0.794,0.619,13.569,10.709,20.894,14.929
					c3.924,1.892,7.561-0.436,7.561-0.436s8.136,7.848,9.296,25.289C499.712,362.055,491.863,376.226,489.247,376.81z"/>
				
					<linearGradient id="SVGID_00000012439424657359839220000016972671498823431826_" gradientUnits="userSpaceOnUse" x1="451.7224" y1="313.6237" x2="451.7224" y2="299.0961">
					<stop  offset="0" style="stop-color:#FFAE7F"/>
					<stop  offset="1" style="stop-color:#FFB384"/>
				</linearGradient>
				<path style="fill-rule:evenodd;clip-rule:evenodd;fill:url(#SVGID_00000012439424657359839220000016972671498823431826_);" d="
					M442.582,306.829c-0.477,0.864,3.073,6.101,8.474,6.758c5.401,0.657,10.818-7.721,9.701-8.79
					c-1.116-1.07-6.592-5.899-9.509-5.694C448.331,299.307,444.326,303.668,442.582,306.829z"/>
				<path style="fill-rule:evenodd;clip-rule:evenodd;fill:#FFD8CB;" d="M456.325,312.712c0,0.801-0.649,1.451-1.451,1.451
					c-0.801,0-1.451-0.65-1.451-1.451s0.65-1.451,1.451-1.451C455.675,311.261,456.325,311.911,456.325,312.712z"/>
				
					<linearGradient id="SVGID_00000011710753341038668020000005098896207269191823_" gradientUnits="userSpaceOnUse" x1="433.9513" y1="317.0839" x2="433.9513" y2="287.731">
					<stop  offset="0" style="stop-color:#DD899F"/>
					<stop  offset="0.9944" style="stop-color:#D360AE"/>
				</linearGradient>
				
					<path style="opacity:0.3;fill-rule:evenodd;clip-rule:evenodd;fill:url(#SVGID_00000011710753341038668020000005098896207269191823_);" d="
					M448.793,317.084c-0.671-0.174-9.584-2.459-13.456-4.578c-0.009-0.009-0.017-0.009-0.017-0.009
					c-4.543-2.511-12.924-15.234-16.211-24.766c0,0,11.149,15.928,16.024,20.733C439.833,313.086,448.035,316.814,448.793,317.084z"
					/>
				
					<linearGradient id="SVGID_00000072976228680217770000000000170411373605322661_" gradientUnits="userSpaceOnUse" x1="489.2431" y1="343.3176" x2="489.2431" y2="323.9577">
					<stop  offset="0" style="stop-color:#FFAE7F"/>
					<stop  offset="1" style="stop-color:#FFB384"/>
				</linearGradient>
				<path style="fill-rule:evenodd;clip-rule:evenodd;fill:url(#SVGID_00000072976228680217770000000000170411373605322661_);" d="
					M478.983,338.383c0,0,5.774,4.455,9.337,4.891c3.562,0.436,12.422-2.398,12.788-7.848c0.366-5.45-12.501-12.143-18.494-11.413
					C476.621,324.743,476.295,336.509,478.983,338.383z"/>
				<polygon style="fill-rule:evenodd;clip-rule:evenodd;fill:#CE5964;" points="462.066,333.635 473.823,342.308 463.858,340.849 
									"/>
			</g>
			
				<linearGradient id="SVGID_00000117642381858786935210000001711983160839425942_" gradientUnits="userSpaceOnUse" x1="485.8987" y1="399.1925" x2="485.8987" y2="371.0719">
				<stop  offset="0" style="stop-color:#DD899F"/>
				<stop  offset="0.9944" style="stop-color:#D360AE"/>
			</linearGradient>
			
				<path style="opacity:0.3;fill-rule:evenodd;clip-rule:evenodd;fill:url(#SVGID_00000117642381858786935210000001711983160839425942_);" d="
				M486.369,399.193c-1.847-14.06-2.721-17.796-2.721-17.796s-11.773-1.168-13.883-2.477c0,0,3.375,0.898,7.212-5.398
				c0,0,10.229,2.494,25.054-2.45L486.369,399.193z"/>
			<path style="fill-rule:evenodd;clip-rule:evenodd;fill:#CE5964;" d="M483.649,381.397c0,0,9.514-7.779,18.383-10.325
				c0,0-16.143,3.41-21.775,9.941L483.649,381.397z"/>
		</g>
		<g style="clip-path:url(#SVGID_00000155127398099409415190000010224916610862725513_);">
			<g>
				
					<linearGradient id="SVGID_00000179634563613731035030000017230219582600347046_" gradientUnits="userSpaceOnUse" x1="591.3973" y1="192.2393" x2="715.4818" y2="199.9491" gradientTransform="matrix(0.9376 0.3479 -0.3479 0.9376 90.1967 -220.8722)">
					<stop  offset="0" style="stop-color:#E3346F"/>
					<stop  offset="1" style="stop-color:#A41A1A"/>
				</linearGradient>
				<path style="fill:url(#SVGID_00000179634563613731035030000017230219582600347046_);" d="M578.162,218.595l-0.985-52.047l0,0
					c0,0,70.763-8.827,118.943-2.291c0,0-10.946,39.945-7.796,58.354c0,0-63.547-12.034-101.786-11.678l-6.67,7.025L578.162,218.595
					z"/>
				<path style="fill:#660B1E;" d="M696.12,164.257l2.739,1.709c0,0-9.31,36.21-8.202,56.796l-2.333-0.151
					C688.324,222.612,684.761,193.007,696.12,164.257z"/>
				<polygon style="fill:#660B1E;" points="578.162,218.595 580.967,218.769 593.628,210.947 586.537,210.934 				"/>
			</g>
			<g>
				<path style="fill:#BAF6FF;" d="M605.961,198.344c-0.552-0.024-1.088-0.045-1.608-0.06c-0.518-0.016-1.034-0.027-1.548-0.032
					c-0.771-0.008-1.533-0.003-2.284,0.014c-0.751,0.014-1.528,0.045-2.329,0.084c0.109-1.836,0.201-3.657,0.274-5.46
					c0.073-1.802,0.12-3.622,0.14-5.461c0.019-1.759,0.016-3.507-0.011-5.242c-0.025-1.735-0.084-3.482-0.174-5.243
					c0.1,0.011,0.213,0.017,0.341,0.018c0.108,0.012,0.242,0.018,0.4,0.019c0.158,0.002,0.336,0.004,0.534,0.006
					c0.316,0.003,0.659-0.001,1.031-0.011c0.37-0.012,0.744-0.03,1.12-0.055c-0.143,1.421-0.251,2.918-0.322,4.489
					c-0.072,1.571-0.123,3.159-0.155,4.765c-0.032,1.606-0.058,3.206-0.081,4.802c-0.023,1.596-0.056,3.136-0.102,4.618
					c0.811-0.011,1.6-0.042,2.365-0.093c0.767-0.05,1.581-0.135,2.443-0.257L605.961,198.344z"/>
				<path style="fill:#BAF6FF;" d="M617.294,188.059c-0.022,1.985-0.176,3.669-0.463,5.05c-0.287,1.381-0.667,2.501-1.14,3.361
					c-0.475,0.86-1.03,1.482-1.666,1.864c-0.637,0.386-1.315,0.573-2.038,0.566c-0.72-0.008-1.396-0.202-2.025-0.579
					c-0.628-0.377-1.175-0.993-1.641-1.847c-0.465-0.855-0.825-1.981-1.083-3.378c-0.257-1.397-0.374-3.112-0.352-5.149
					c0.023-2.046,0.177-3.782,0.464-5.206c0.287-1.425,0.673-2.581,1.156-3.471c0.484-0.89,1.044-1.532,1.681-1.926
					c0.637-0.393,1.317-0.586,2.038-0.577c0.722,0.007,1.397,0.21,2.025,0.607c0.628,0.399,1.169,1.043,1.625,1.938
					c0.456,0.895,0.811,2.057,1.067,3.488C617.199,184.23,617.315,185.984,617.294,188.059z M613.988,188.024
					c0.017-1.552-0.019-2.861-0.107-3.93c-0.086-1.07-0.213-1.937-0.38-2.607c-0.165-0.67-0.361-1.153-0.584-1.453
					c-0.224-0.297-0.464-0.45-0.722-0.453c-0.267-0.003-0.518,0.146-0.754,0.447c-0.235,0.299-0.444,0.779-0.623,1.445
					c-0.18,0.666-0.326,1.535-0.436,2.604c-0.11,1.072-0.174,2.374-0.19,3.907c-0.016,1.522,0.019,2.8,0.107,3.833
					c0.088,1.033,0.215,1.865,0.38,2.494c0.167,0.631,0.364,1.081,0.594,1.35c0.23,0.267,0.477,0.404,0.744,0.407
					c0.258,0.003,0.5-0.134,0.732-0.415c0.229-0.279,0.435-0.737,0.615-1.372c0.181-0.635,0.325-1.466,0.434-2.494
					C613.909,190.761,613.973,189.507,613.988,188.024z"/>
				<path style="fill:#BAF6FF;" d="M628.918,188.184c-0.022,1.985-0.176,3.67-0.463,5.051c-0.287,1.381-0.666,2.5-1.139,3.361
					c-0.475,0.86-1.03,1.482-1.666,1.864c-0.636,0.385-1.315,0.573-2.037,0.565c-0.721-0.007-1.396-0.201-2.025-0.579
					c-0.628-0.376-1.175-0.993-1.641-1.847c-0.464-0.855-0.825-1.981-1.084-3.377c-0.256-1.398-0.374-3.112-0.352-5.149
					c0.022-2.046,0.177-3.783,0.463-5.206c0.287-1.426,0.674-2.582,1.156-3.472c0.484-0.89,1.044-1.532,1.682-1.926
					c0.637-0.392,1.317-0.585,2.038-0.578c0.722,0.008,1.397,0.21,2.025,0.607c0.628,0.399,1.169,1.043,1.624,1.938
					c0.456,0.895,0.811,2.057,1.067,3.489C628.822,184.355,628.938,186.108,628.918,188.184z M625.611,188.148
					c0.017-1.552-0.019-2.861-0.107-3.929c-0.087-1.069-0.213-1.937-0.38-2.607c-0.165-0.669-0.361-1.154-0.584-1.452
					c-0.224-0.298-0.464-0.451-0.721-0.454c-0.267-0.003-0.518,0.147-0.754,0.446c-0.235,0.299-0.445,0.779-0.623,1.446
					c-0.18,0.666-0.326,1.534-0.436,2.603c-0.11,1.072-0.174,2.373-0.19,3.906c-0.017,1.522,0.019,2.801,0.106,3.834
					c0.088,1.032,0.216,1.864,0.38,2.494c0.167,0.63,0.365,1.08,0.594,1.349c0.23,0.269,0.477,0.404,0.744,0.407
					c0.258,0.003,0.5-0.134,0.731-0.414c0.229-0.28,0.435-0.737,0.615-1.372c0.181-0.635,0.326-1.466,0.435-2.495
					C625.533,190.885,625.596,189.631,625.611,188.148z"/>
				<path style="fill:#BAF6FF;" d="M637.965,193.411c-0.009,0.782-0.098,1.465-0.267,2.05c-0.169,0.587-0.387,1.088-0.654,1.506
					c-0.267,0.418-0.564,0.758-0.893,1.029c-0.328,0.266-0.665,0.479-1.007,0.633c-0.343,0.153-0.67,0.263-0.981,0.323
					c-0.313,0.061-0.583,0.089-0.81,0.087c-0.118-0.001-0.282-0.01-0.489-0.026c-0.208-0.018-0.444-0.053-0.711-0.105
					c-0.266-0.053-0.558-0.127-0.879-0.224c-0.321-0.099-0.657-0.233-1.012-0.404l0.203-3.736c0.579,0.501,1.097,0.837,1.554,1.012
					c0.458,0.172,0.845,0.26,1.162,0.263c0.612,0.006,1.076-0.211,1.393-0.653c0.315-0.44,0.477-1.018,0.486-1.73
					c0.005-0.473-0.107-1.007-0.332-1.597c-0.227-0.59-0.632-1.23-1.218-1.918c-0.4-0.479-0.815-0.977-1.244-1.498
					c-0.43-0.516-0.819-1.07-1.168-1.658c-0.35-0.585-0.635-1.217-0.854-1.891c-0.221-0.673-0.328-1.401-0.318-2.182
					c0.01-0.988,0.155-1.841,0.434-2.56c0.28-0.718,0.65-1.314,1.109-1.783c0.461-0.471,0.985-0.817,1.576-1.044
					c0.591-0.225,1.206-0.335,1.849-0.328c0.564,0.006,1.14,0.089,1.725,0.248c0.586,0.16,1.175,0.401,1.765,0.723l-0.323,3.734
					c-0.253-0.331-0.52-0.593-0.798-0.787c-0.28-0.196-0.55-0.345-0.811-0.447s-0.503-0.169-0.724-0.2
					c-0.223-0.033-0.407-0.049-0.555-0.05c-0.287-0.003-0.553,0.065-0.796,0.206c-0.244,0.141-0.453,0.332-0.629,0.572
					c-0.175,0.241-0.314,0.524-0.415,0.855c-0.104,0.332-0.157,0.679-0.161,1.044c-0.006,0.564,0.109,1.074,0.347,1.531
					c0.237,0.457,0.536,0.911,0.896,1.359c0.362,0.449,0.749,0.91,1.164,1.384c0.416,0.474,0.803,1.008,1.163,1.6
					c0.358,0.592,0.656,1.267,0.89,2.025C637.864,191.533,637.976,192.413,637.965,193.411z"/>
				<path style="fill:#BAF6FF;" d="M645.644,190.809c-0.307-0.024-0.618-0.041-0.935-0.054c-0.316-0.013-0.632-0.022-0.948-0.026
					c-0.178-0.002-0.363,0.001-0.557,0.009c-0.192,0.007-0.383,0.011-0.57,0.009l-0.116,5.29c0.811-0.011,1.6-0.041,2.365-0.092
					c0.767-0.051,1.58-0.136,2.441-0.257l-0.032,3.099c-0.553-0.026-1.089-0.046-1.609-0.061c-0.519-0.016-1.034-0.027-1.548-0.033
					c-0.772-0.008-1.533-0.002-2.285,0.015c-0.751,0.013-1.528,0.045-2.329,0.084c0.109-1.837,0.2-3.657,0.273-5.461
					c0.074-1.803,0.121-3.623,0.141-5.461c0.019-1.759,0.015-3.507-0.011-5.242c-0.025-1.734-0.083-3.48-0.174-5.242
					c1.167,0.101,2.277,0.157,3.335,0.168c0.671,0.007,1.342-0.004,2.009-0.03c0.668-0.028,1.382-0.066,2.144-0.117l-0.036,3.408
					c-0.612-0.116-1.217-0.207-1.813-0.272c-0.598-0.065-1.194-0.1-1.787-0.107l-0.577-0.006c-0.112,1.235-0.192,2.463-0.24,3.689
					c-0.048,1.225-0.088,2.455-0.12,3.691c0.257,0.022,0.515,0.036,0.778,0.038c0.261,0.004,0.531,0.006,0.808,0.009
					c0.227,0.002,0.459,0.005,0.696,0.008c0.237,0.002,0.479-0.006,0.728-0.023L645.644,190.809z"/>
				<path style="fill:#BAF6FF;" d="M657.49,183.923c-0.007,0.662-0.076,1.326-0.207,1.992c-0.13,0.665-0.338,1.305-0.621,1.922
					c-0.283,0.615-0.645,1.187-1.086,1.723c-0.44,0.534-0.979,1.004-1.617,1.412c0.539,1.421,1.135,2.782,1.788,4.089
					c0.654,1.307,1.384,2.568,2.192,3.781l-3.709,0.168l-2.444-7.187c0.026,1.206,0.065,2.403,0.111,3.589
					c0.045,1.187,0.108,2.359,0.184,3.516l-3.617-0.038c0.182-2.241,0.322-4.483,0.421-6.727c0.099-2.242,0.16-4.501,0.183-6.773
					c0.015-1.315,0.019-2.627,0.013-3.936c-0.005-1.311-0.031-2.632-0.076-3.966c0.524-0.152,1.058-0.252,1.596-0.297
					c0.539-0.042,0.996-0.063,1.372-0.059c0.267,0.003,0.591,0.036,0.971,0.093c0.379,0.057,0.776,0.175,1.189,0.346
					c0.413,0.172,0.824,0.414,1.23,0.723c0.407,0.313,0.769,0.72,1.086,1.221c0.315,0.503,0.57,1.115,0.765,1.832
					C657.409,182.066,657.5,182.926,657.49,183.923z M651.782,189.421c0.347-0.095,0.653-0.237,0.915-0.428
					c0.265-0.188,0.497-0.406,0.697-0.651c0.2-0.245,0.369-0.506,0.505-0.781c0.136-0.274,0.25-0.551,0.342-0.827
					c0.205-0.64,0.326-1.339,0.364-2.101c0-0.02-0.001-0.142-0.003-0.364c-0.004-0.222-0.028-0.501-0.074-0.839
					c-0.045-0.336-0.114-0.701-0.202-1.1c-0.091-0.394-0.222-0.779-0.396-1.154c-0.174-0.37-0.397-0.702-0.672-0.992
					c-0.274-0.29-0.608-0.495-1.001-0.618c-0.135,1.55-0.243,3.094-0.325,4.631c-0.08,1.535-0.129,3.085-0.146,4.646
					L651.782,189.421z"/>
			</g>
		</g>
		<g style="clip-path:url(#SVGID_00000155127398099409415190000010224916610862725513_);">
			<g>
				
					<linearGradient id="SVGID_00000130626526448904387500000015227492426973650093_" gradientUnits="userSpaceOnUse" x1="739.7852" y1="471.5423" x2="739.7852" y2="360.6411" gradientTransform="matrix(0.7678 0.6407 -0.6407 0.7678 241.256 -707.328)">
					<stop  offset="0" style="stop-color:#E3346F"/>
					<stop  offset="1" style="stop-color:#A41A1A"/>
				</linearGradient>
				<polygon style="fill:url(#SVGID_00000130626526448904387500000015227492426973650093_);" points="560.323,28.635 
					493.307,98.402 520.72,140.03 522.814,129.712 601.171,62.91 				"/>
				<polygon style="fill:#660B1E;" points="601.171,62.91 601.523,67.762 522.338,132.604 522.814,129.712 				"/>
			</g>
			<g>
				<path style="fill:#BAF6FF;" d="M529.84,98.027c0.521,0.582,0.916,1.144,1.189,1.692c0.271,0.548,0.449,1.064,0.534,1.552
					c0.086,0.487,0.095,0.94,0.036,1.361c-0.063,0.419-0.168,0.802-0.316,1.148c-0.148,0.345-0.316,0.646-0.507,0.903
					c-0.188,0.255-0.368,0.459-0.538,0.61c-0.087,0.079-0.214,0.182-0.378,0.311c-0.164,0.127-0.363,0.26-0.595,0.403
					c-0.232,0.14-0.498,0.284-0.799,0.429c-0.304,0.143-0.641,0.271-1.018,0.385l-2.374-2.892c0.765-0.021,1.373-0.122,1.828-0.303
					c0.454-0.183,0.799-0.378,1.036-0.59c0.455-0.408,0.651-0.881,0.585-1.422c-0.064-0.538-0.334-1.074-0.809-1.603
					c-0.316-0.353-0.76-0.671-1.323-0.954c-0.566-0.283-1.296-0.48-2.194-0.592c-0.618-0.082-1.261-0.171-1.929-0.265
					c-0.666-0.091-1.327-0.237-1.981-0.434c-0.653-0.196-1.291-0.469-1.909-0.817c-0.616-0.349-1.185-0.812-1.707-1.394
					c-0.661-0.737-1.13-1.463-1.409-2.184c-0.279-0.719-0.409-1.406-0.386-2.062c0.023-0.658,0.174-1.269,0.457-1.835
					c0.283-0.564,0.664-1.062,1.143-1.491c0.419-0.375,0.899-0.702,1.44-0.981c0.539-0.278,1.136-0.496,1.787-0.658l2.285,2.971
					c-0.409-0.072-0.783-0.086-1.121-0.041c-0.339,0.045-0.64,0.117-0.899,0.219c-0.261,0.1-0.485,0.214-0.669,0.34
					c-0.186,0.128-0.334,0.24-0.444,0.339c-0.214,0.191-0.362,0.423-0.447,0.691c-0.086,0.268-0.112,0.549-0.079,0.845
					c0.034,0.296,0.123,0.6,0.271,0.912c0.148,0.314,0.344,0.607,0.587,0.878c0.377,0.419,0.806,0.717,1.291,0.894
					c0.483,0.176,1.01,0.309,1.578,0.396c0.57,0.087,1.167,0.164,1.794,0.233c0.627,0.069,1.273,0.201,1.937,0.395
					c0.664,0.194,1.34,0.492,2.024,0.893C528.498,96.71,529.172,97.284,529.84,98.027z"/>
				<path style="fill:#BAF6FF;" d="M527.913,82.373c-0.25,0.196-0.529,0.427-0.842,0.692c-0.311,0.268-0.641,0.556-0.987,0.866
					c0.562,0.73,1.154,1.477,1.779,2.238c0.623,0.763,1.261,1.531,1.916,2.305c0.654,0.774,1.32,1.546,1.994,2.315
					c0.676,0.768,1.347,1.524,2.013,2.267c0.76,0.845,1.498,1.659,2.218,2.44c0.72,0.781,1.429,1.524,2.126,2.228l-2.351,2.106
					c-1.056-1.31-2.2-2.688-3.428-4.134c-1.23-1.447-2.488-2.887-3.775-4.324c-0.837-0.934-1.666-1.837-2.488-2.706
					c-0.82-0.871-1.621-1.72-2.401-2.547c-0.353,0.317-0.686,0.62-0.996,0.911c-0.309,0.291-0.582,0.557-0.819,0.796l-2.045-2.326
					c0.283-0.215,0.597-0.467,0.937-0.753c0.342-0.284,0.697-0.587,1.069-0.907c0.372-0.319,0.75-0.648,1.135-0.987
					c0.386-0.34,0.763-0.674,1.131-1.005c0.368-0.329,0.717-0.641,1.044-0.935c0.327-0.293,0.613-0.562,0.857-0.807L527.913,82.373z
					"/>
				<path style="fill:#BAF6FF;" d="M532.969,73.44c1.514,1.351,2.994,2.764,4.434,4.239c1.442,1.475,2.912,3.047,4.41,4.719
					c0.508,0.567,0.987,1.149,1.437,1.748c0.451,0.598,0.845,1.202,1.18,1.807c0.339,0.607,0.607,1.21,0.806,1.809
					c0.197,0.598,0.297,1.179,0.297,1.743c0.002,0.564-0.11,1.106-0.331,1.631c-0.22,0.523-0.579,1.005-1.072,1.447
					c-0.441,0.396-0.901,0.659-1.381,0.789c-0.479,0.133-0.967,0.159-1.463,0.079c-0.497-0.079-1-0.245-1.511-0.497
					c-0.511-0.253-1.016-0.569-1.518-0.949c-0.5-0.382-0.993-0.806-1.478-1.274c-0.487-0.467-0.955-0.954-1.411-1.462
					c-1.373-1.533-2.7-3.139-3.984-4.823c-1.284-1.682-2.595-3.443-3.938-5.279l2.348-2.026c1.286,1.702,2.595,3.409,3.924,5.123
					c1.33,1.713,2.762,3.425,4.291,5.132c0.442,0.493,0.876,0.949,1.301,1.363c0.426,0.416,0.825,0.758,1.2,1.026
					c0.373,0.27,0.705,0.452,0.996,0.549c0.294,0.095,0.524,0.069,0.694-0.084c0.199-0.178,0.24-0.498,0.127-0.959
					c-0.115-0.462-0.345-0.998-0.689-1.613c-0.345-0.613-0.778-1.276-1.299-1.991c-0.52-0.715-1.083-1.411-1.692-2.088
					c-0.581-0.646-1.169-1.294-1.768-1.94c-0.6-0.645-1.21-1.294-1.837-1.947c-0.625-0.654-1.272-1.315-1.938-1.985
					c-0.666-0.671-1.37-1.358-2.108-2.063L532.969,73.44z"/>
				<path style="fill:#BAF6FF;" d="M545.927,70.885c0.567,0.633,1.042,1.327,1.421,2.083c0.378,0.755,0.628,1.544,0.746,2.366
					c0.118,0.82,0.096,1.664-0.076,2.525c-0.169,0.863-0.518,1.716-1.047,2.562c0.812,0.878,1.623,1.741,2.432,2.591
					c0.806,0.849,1.615,1.687,2.423,2.514l-2.695,2.415c-1.379-1.776-2.79-3.525-4.234-5.245c-1.44-1.72-2.922-3.426-4.438-5.118
					c-0.878-0.98-1.761-1.95-2.649-2.912c-0.891-0.962-1.802-1.92-2.736-2.874c0.284-0.467,0.61-0.899,0.978-1.295
					c0.368-0.396,0.692-0.72,0.972-0.97c0.199-0.179,0.464-0.377,0.794-0.594c0.329-0.215,0.709-0.399,1.136-0.551
					c0.429-0.153,0.904-0.252,1.424-0.301c0.52-0.048,1.08,0.01,1.675,0.171c0.597,0.163,1.22,0.451,1.87,0.863
					C544.573,69.53,545.241,70.119,545.927,70.885z M545.289,78.545c0.163-0.306,0.27-0.613,0.319-0.922
					c0.046-0.309,0.059-0.613,0.033-0.918c-0.026-0.302-0.086-0.597-0.178-0.886c-0.092-0.288-0.199-0.559-0.317-0.809
					c-0.276-0.59-0.646-1.166-1.113-1.73c-0.007-0.008-0.084-0.09-0.234-0.25c-0.148-0.159-0.35-0.347-0.604-0.564
					c-0.255-0.215-0.552-0.441-0.893-0.673c-0.341-0.232-0.697-0.427-1.07-0.584c-0.373-0.156-0.758-0.253-1.156-0.289
					c-0.396-0.035-0.783,0.035-1.154,0.21c0.963,1.194,1.947,2.373,2.951,3.537c1.003,1.164,2.026,2.328,3.07,3.491L545.289,78.545z
					"/>
				<path style="fill:#BAF6FF;" d="M560.925,76.932c-0.306,0.25-0.612,0.503-0.913,0.76c-0.301,0.256-0.598,0.516-0.893,0.781
					c-0.485,0.434-0.964,0.878-1.434,1.332c-0.469,0.454-0.929,0.917-1.381,1.389l-2.108-2.394c0.191-0.128,0.375-0.263,0.554-0.405
					c0.179-0.14,0.359-0.28,0.541-0.418c-0.977-1.179-1.953-2.353-2.923-3.519c-0.973-1.166-1.968-2.315-2.984-3.45
					c-0.679-0.758-1.361-1.496-2.045-2.216c-0.686-0.72-1.376-1.445-2.07-2.177c-0.192,0.173-0.385,0.35-0.576,0.536
					c-0.194,0.186-0.385,0.378-0.579,0.577l-2.045-2.326c0.6-0.472,1.19-0.952,1.774-1.442c0.584-0.488,1.162-0.992,1.736-1.506
					c0.205-0.184,0.413-0.368,0.618-0.554c0.205-0.184,0.409-0.38,0.61-0.585l1.902,2.256c-0.169,0.151-0.34,0.298-0.511,0.439
					c-0.174,0.141-0.344,0.288-0.513,0.441c1.085,1.416,2.19,2.798,3.318,4.143c1.125,1.347,2.282,2.682,3.469,4.007
					c1.037,1.156,2.091,2.287,3.165,3.395c0.235-0.21,0.472-0.431,0.712-0.659c0.242-0.227,0.48-0.461,0.715-0.702L560.925,76.932z"
					/>
				<path style="fill:#BAF6FF;" d="M562.404,62.345c1.023,1.141,1.822,2.2,2.399,3.178c0.577,0.975,0.988,1.876,1.238,2.701
					c0.248,0.826,0.363,1.573,0.345,2.239c-0.02,0.668-0.117,1.259-0.291,1.774c-0.176,0.516-0.396,0.957-0.666,1.324
					c-0.268,0.367-0.529,0.661-0.779,0.886l-2.43,1.842c-1.251-1.587-2.532-3.163-3.841-4.73c-1.312-1.567-2.659-3.121-4.045-4.668
					c-1.049-1.169-2.101-2.315-3.162-3.436c-1.059-1.123-2.133-2.231-3.219-3.326c0.163-0.173,0.327-0.339,0.488-0.498
					c0.164-0.158,0.325-0.312,0.487-0.457c1.222-1.095,2.402-1.777,3.542-2.047c1.138-0.27,2.258-0.224,3.358,0.136
					c1.098,0.362,2.192,0.986,3.278,1.879C560.188,60.035,561.29,61.102,562.404,62.345z M559.886,64.066
					c-0.322-0.36-0.676-0.738-1.055-1.133c-0.381-0.395-0.778-0.775-1.189-1.136c-0.409-0.362-0.835-0.692-1.273-0.988
					c-0.439-0.298-0.88-0.536-1.32-0.718c-0.442-0.181-0.878-0.286-1.305-0.313c-0.431-0.028-0.845,0.053-1.248,0.242
					c0.681,0.848,1.35,1.672,2.008,2.471c0.654,0.799,1.309,1.583,1.96,2.354c0.651,0.771,1.302,1.531,1.953,2.28
					c0.651,0.75,1.312,1.496,1.978,2.239c0.436,0.485,0.876,0.977,1.322,1.473c0.444,0.496,0.906,0.996,1.383,1.5
					c0.304-0.342,0.483-0.735,0.536-1.179c0.053-0.446,0.016-0.912-0.112-1.403c-0.127-0.49-0.327-0.995-0.602-1.513
					c-0.271-0.52-0.577-1.028-0.918-1.526c-0.34-0.498-0.695-0.972-1.065-1.424C560.565,64.844,560.216,64.435,559.886,64.066z"/>
			</g>
		</g>
		<g style="clip-path:url(#SVGID_00000155127398099409415190000010224916610862725513_);">
			<g>
				
					<linearGradient id="SVGID_00000040564822888965769770000016131368724074241956_" gradientUnits="userSpaceOnUse" x1="191.01" y1="113.9692" x2="113.6071" y2="61.6449" gradientTransform="matrix(0.8397 0.5431 -0.5431 0.8397 107.8149 -46.612)">
					<stop  offset="0" style="stop-color:#E3346F"/>
					<stop  offset="1" style="stop-color:#A41A1A"/>
				</linearGradient>
				<path style="fill:url(#SVGID_00000040564822888965769770000016131368724074241956_);" d="M137.603,80.521l101.742,3.484
					l0.842,54.408l-5.546-9.468c0,0-65.141,16.173-92.604,19.278L137.603,80.521z"/>
				<polygon style="fill:#F94D64;" points="137.603,80.521 140.396,79.169 237.435,81.708 239.344,84.005 				"/>
			</g>
			<g>
				<path style="fill:#BAF6FF;" d="M176.867,100.046c0.051,2.038,0.116,4.058,0.195,6.058c0.078,2.003,0.178,4.009,0.3,6.02
					c0.258,0.003,0.517-0.008,0.779-0.028c0.261-0.019,0.521-0.038,0.777-0.059c0.328-0.024,0.664-0.055,1.006-0.091
					c0.342-0.036,0.688-0.077,1.035-0.126c-0.013-0.452-0.036-0.896-0.069-1.331c-0.033-0.437-0.067-0.885-0.102-1.346
					c-0.118-1.56-0.25-3.113-0.397-4.661c-0.148-1.545-0.317-3.101-0.508-4.665l3.785-0.286c0.003,2.487,0.046,4.952,0.133,7.395
					c0.086,2.445,0.223,4.901,0.409,7.374c0.092,1.209,0.198,2.412,0.319,3.61c0.121,1.198,0.253,2.407,0.397,3.622l-3.508,0.265
					c-0.041-1.224-0.087-2.443-0.137-3.658c-0.051-1.212-0.1-2.426-0.15-3.641c-0.588,0.013-1.172,0.029-1.753,0.05
					c-0.581,0.016-1.16,0.046-1.735,0.09l-0.122,0.009l0.239,3.17c0.055,0.717,0.108,1.426,0.161,2.123
					c0.053,0.698,0.115,1.399,0.19,2.106l-3.523,0.266c-0.061-1.481-0.138-2.943-0.231-4.385c-0.094-1.442-0.196-2.89-0.306-4.348
					c-0.332-4.411-0.757-8.821-1.277-13.229L176.867,100.046z"/>
				<path style="fill:#BAF6FF;" d="M193.436,121.14c-0.106-0.706-0.207-1.413-0.307-2.129c-0.099-0.715-0.209-1.433-0.325-2.155
					c-0.453,0.003-0.892,0.004-1.316,0.005c-0.422,0-0.849,0.018-1.28,0.05l-0.2,0.015c0.004,0.743,0.014,1.475,0.026,2.196
					c0.014,0.722,0.031,1.436,0.054,2.145l-3.85,0.228c0.359-3.709,0.658-7.403,0.896-11.083c0.238-3.68,0.397-7.385,0.477-11.114
					l4.637-0.273c0.666,3.633,1.411,7.236,2.232,10.811c0.82,3.573,1.739,7.164,2.754,10.77L193.436,121.14z M190.257,102.997
					c-0.063,1.903-0.116,3.8-0.158,5.69c-0.043,1.892-0.071,3.797-0.08,5.715c0.217,0.004,0.437-0.001,0.664-0.018
					c0.225-0.018,0.455-0.035,0.692-0.053l1-0.075c-0.319-1.894-0.656-3.773-1.013-5.634
					C191.006,106.763,190.636,104.887,190.257,102.997z"/>
				<path style="fill:#BAF6FF;" d="M204.481,101.196c-0.331,0.005-0.71,0.019-1.135,0.041c-0.427,0.021-0.881,0.049-1.363,0.085
					c0,0.961,0.015,1.953,0.046,2.977c0.031,1.023,0.071,2.062,0.119,3.115c0.048,1.055,0.108,2.112,0.178,3.174
					c0.07,1.063,0.144,2.112,0.221,3.147c0.089,1.181,0.184,2.322,0.282,3.423c0.098,1.101,0.211,2.163,0.341,3.185l-3.277,0.246
					c-0.04-1.751-0.109-3.612-0.205-5.587c-0.098-1.973-0.221-3.959-0.372-5.959c-0.098-1.303-0.21-2.572-0.335-3.81
					c-0.124-1.24-0.246-2.45-0.366-3.626c-0.492,0.037-0.959,0.078-1.399,0.12c-0.44,0.046-0.834,0.09-1.18,0.134l-0.212-3.216
					c0.37,0.004,0.787-0.005,1.251-0.024c0.463-0.019,0.949-0.043,1.458-0.072c0.508-0.029,1.029-0.059,1.562-0.094
					c0.534-0.036,1.057-0.072,1.57-0.112c0.513-0.038,0.997-0.075,1.454-0.109c0.455-0.035,0.863-0.074,1.221-0.123L204.481,101.196
					z"/>
				<path style="fill:#BAF6FF;" d="M212.854,111.273c-0.32,0.002-0.645,0.012-0.973,0.026c-0.329,0.015-0.657,0.035-0.987,0.06
					c-0.184,0.012-0.375,0.031-0.574,0.057c-0.2,0.026-0.397,0.048-0.592,0.061l0.353,5.498c0.839-0.085,1.655-0.187,2.445-0.309
					c0.79-0.123,1.626-0.282,2.509-0.485l0.243,3.216c-0.577,0.023-1.133,0.052-1.673,0.081c-0.539,0.029-1.075,0.065-1.609,0.105
					c-0.8,0.06-1.589,0.133-2.366,0.218c-0.778,0.084-1.581,0.184-2.407,0.298c-0.053-1.915-0.12-3.81-0.205-5.686
					c-0.085-1.876-0.201-3.766-0.344-5.675c-0.137-1.824-0.296-3.637-0.479-5.435c-0.183-1.795-0.399-3.603-0.649-5.422
					c1.218,0.004,2.376-0.039,3.474-0.121c0.697-0.052,1.391-0.124,2.08-0.211c0.689-0.087,1.427-0.194,2.213-0.313l0.267,3.538
					c-0.645-0.065-1.278-0.106-1.904-0.118c-0.626-0.017-1.246-0.001-1.862,0.045l-0.6,0.045c-0.005,1.292,0.021,2.574,0.082,3.848
					c0.06,1.276,0.128,2.555,0.204,3.839c0.268-0.002,0.538-0.01,0.809-0.032c0.272-0.02,0.552-0.042,0.839-0.063
					c0.236-0.018,0.477-0.036,0.723-0.054c0.246-0.02,0.497-0.048,0.753-0.087L212.854,111.273z"/>
			</g>
		</g>
		<g style="clip-path:url(#SVGID_00000155127398099409415190000010224916610862725513_);">
			<g>
				
					<linearGradient id="SVGID_00000110438080212911477900000007321779466930029742_" gradientUnits="userSpaceOnUse" x1="74.0693" y1="383.5822" x2="216.0659" y2="392.4049" gradientTransform="matrix(-0.9993 0.0367 -0.0367 -0.9993 343.9239 645.5379)">
					<stop  offset="0" style="stop-color:#E3346F"/>
					<stop  offset="1" style="stop-color:#A41A1A"/>
				</linearGradient>
				<path style="fill:url(#SVGID_00000110438080212911477900000007321779466930029742_);" d="M256.144,252.509l-10.645-1.165
					c0,0-61.279,45.646-106.777,60.037c0,0-14.847-46.949-24.792-62.757c0,0,67.152-19.147,102.353-34.089L256.144,252.509z"/>
				<path style="fill:#660B1E;" d="M138.723,311.38l-3.71-0.605c0,0-14.406-42.799-23.296-61.4l2.214-0.752
					C113.93,248.623,138.234,280.472,138.723,311.38z"/>
				<polygon style="fill:#660B1E;" points="256.144,252.509 254.666,253.986 242.148,253.637 246.407,250.739 				"/>
			</g>
			<g>
				<path style="fill:#BAF6FF;" d="M164.199,249.341c1.287,2.257,2.502,4.574,3.649,6.954c1.145,2.378,2.285,4.888,3.418,7.527
					c0.385,0.896,0.728,1.799,1.03,2.708c0.3,0.911,0.533,1.802,0.695,2.677c0.162,0.873,0.24,1.714,0.238,2.521
					c-0.004,0.81-0.121,1.554-0.352,2.237c-0.23,0.686-0.586,1.298-1.068,1.844c-0.482,0.544-1.111,0.984-1.891,1.32
					c-0.698,0.3-1.365,0.43-2.002,0.393c-0.634-0.038-1.237-0.206-1.807-0.505c-0.569-0.299-1.112-0.706-1.628-1.219
					c-0.518-0.515-1.002-1.107-1.454-1.775c-0.451-0.667-0.876-1.382-1.273-2.147c-0.398-0.766-0.769-1.55-1.114-2.352
					c-1.039-2.417-1.992-4.91-2.86-7.48c-0.869-2.566-1.742-5.239-2.617-8.015l3.674-1.496c0.865,2.59,1.754,5.196,2.667,7.819
					c0.913,2.625,1.949,5.284,3.108,7.983c0.334,0.779,0.674,1.507,1.021,2.185c0.345,0.677,0.692,1.256,1.034,1.734
					c0.344,0.479,0.673,0.837,0.99,1.074c0.313,0.238,0.606,0.298,0.872,0.184c0.314-0.136,0.495-0.507,0.545-1.113
					c0.049-0.605-0.009-1.352-0.176-2.238c-0.168-0.885-0.422-1.868-0.761-2.948c-0.339-1.079-0.739-2.155-1.199-3.224
					c-0.439-1.024-0.89-2.049-1.352-3.076c-0.462-1.028-0.94-2.066-1.43-3.114c-0.492-1.049-1.006-2.116-1.541-3.201
					c-0.534-1.086-1.106-2.209-1.715-3.366L164.199,249.341z"/>
				<path style="fill:#BAF6FF;" d="M182.563,256.552c0.122,0.444,0.266,0.947,0.43,1.509c0.167,0.563,0.357,1.159,0.574,1.789
					c0.215,0.631,0.453,1.287,0.71,1.967c0.258,0.682,0.533,1.359,0.823,2.034c0.066,0.15,0.166,0.365,0.306,0.643
					c0.14,0.276,0.295,0.581,0.465,0.915c0.172,0.333,0.349,0.677,0.535,1.03c0.188,0.355,0.363,0.684,0.53,0.991
					c0.166,0.308,0.311,0.574,0.434,0.795c0.123,0.223,0.214,0.371,0.272,0.441c-0.364,0.404-0.741,0.757-1.137,1.056
					c-0.394,0.3-0.752,0.555-1.077,0.763c-0.382,0.233-0.763,0.438-1.141,0.615c-0.418,0.18-0.902,0.297-1.45,0.352
					c-0.546,0.056-1.143,0.007-1.789-0.148c-0.645-0.157-1.331-0.457-2.056-0.895c-0.727-0.439-1.469-1.063-2.231-1.872
					c-0.761-0.81-1.532-1.838-2.316-3.086c-0.784-1.246-1.558-2.76-2.321-4.54c-0.763-1.777-1.307-3.383-1.625-4.816
					c-0.318-1.433-0.482-2.71-0.487-3.829c-0.007-1.12,0.111-2.094,0.357-2.921c0.244-0.828,0.549-1.531,0.922-2.11
					c0.37-0.58,0.774-1.041,1.21-1.389c0.437-0.345,0.836-0.596,1.196-0.751c0.342-0.134,0.689-0.242,1.038-0.325
					c0.306-0.06,0.636-0.098,0.993-0.114c0.359-0.017,0.699,0.03,1.022,0.14l1.156,3.654c-0.395-0.021-0.752-0.009-1.069,0.038
					c-0.316,0.046-0.603,0.124-0.859,0.235c-0.488,0.209-0.866,0.525-1.13,0.949c-0.265,0.426-0.442,0.911-0.531,1.458
					c-0.089,0.548-0.112,1.135-0.068,1.766c0.042,0.628,0.128,1.253,0.256,1.872c0.284,1.461,0.776,3.055,1.474,4.78
					c0.669,1.459,1.386,2.758,2.147,3.891c0.33,0.478,0.684,0.944,1.068,1.401c0.381,0.454,0.782,0.859,1.2,1.209
					c0.419,0.349,0.854,0.622,1.3,0.814c0.449,0.194,0.903,0.267,1.366,0.22c-0.673-1.503-1.39-2.972-2.151-4.407
					c-0.761-1.435-1.583-2.859-2.464-4.27L182.563,256.552z"/>
				<path style="fill:#BAF6FF;" d="M198.851,264.41c-0.661,0.258-1.3,0.511-1.914,0.761c-0.617,0.252-1.227,0.506-1.831,0.765
					c-0.907,0.39-1.796,0.791-2.667,1.198c-0.871,0.409-1.765,0.845-2.683,1.306c-0.823-2.207-1.66-4.386-2.507-6.537
					c-0.848-2.148-1.735-4.303-2.664-6.467c-0.89-2.069-1.798-4.113-2.727-6.132c-0.929-2.019-1.902-4.034-2.919-6.049
					c0.121-0.037,0.258-0.09,0.409-0.153c0.134-0.044,0.294-0.106,0.479-0.186c0.186-0.08,0.396-0.17,0.629-0.27
					c0.372-0.16,0.772-0.343,1.2-0.545c0.429-0.206,0.856-0.421,1.283-0.644c0.568,1.739,1.216,3.546,1.947,5.423
					c0.73,1.876,1.492,3.762,2.286,5.658c0.795,1.898,1.592,3.788,2.394,5.667c0.798,1.881,1.557,3.7,2.272,5.459
					c0.944-0.431,1.849-0.877,2.721-1.334c0.871-0.458,1.779-0.98,2.727-1.564L198.851,264.41z"/>
				<path style="fill:#BAF6FF;" d="M201.017,233.815c0.338,3.354,0.748,6.705,1.231,10.059c0.482,3.352,0.965,6.586,1.449,9.696
					l0.464,1.082c0.25,0.582,0.495,1.129,0.734,1.637c0.24,0.51,0.479,1.013,0.72,1.509c0.241,0.496,0.495,0.998,0.763,1.511
					c0.268,0.512,0.558,1.051,0.871,1.619l-4.186,1.797c-0.216-0.76-0.423-1.465-0.621-2.118c-0.198-0.652-0.405-1.29-0.625-1.911
					c-0.219-0.622-0.454-1.259-0.705-1.908c-0.251-0.648-0.539-1.351-0.865-2.109c-0.9-1.197-1.837-2.439-2.81-3.73
					c-0.974-1.288-1.959-2.579-2.956-3.873c-0.996-1.295-1.988-2.581-2.978-3.856c-0.989-1.275-1.95-2.505-2.885-3.689l4.203-2.238
					c0.456,0.933,0.969,1.908,1.535,2.926c0.567,1.016,1.165,2.044,1.79,3.083c0.625,1.039,1.274,2.084,1.945,3.132
					c0.669,1.047,1.335,2.069,1.997,3.066c-0.253-1.199-0.518-2.418-0.795-3.655c-0.276-1.237-0.562-2.453-0.855-3.649
					c-0.294-1.198-0.59-2.359-0.886-3.484c-0.297-1.125-0.588-2.178-0.872-3.158L201.017,233.815z"/>
			</g>
		</g>
		<g style="clip-path:url(#SVGID_00000155127398099409415190000010224916610862725513_);">
			<g>
				
					<linearGradient id="SVGID_00000023966063377475189690000000016013804833527435_" gradientUnits="userSpaceOnUse" x1="769.327" y1="424.9229" x2="769.327" y2="324.0747" gradientTransform="matrix(-0.2911 0.9567 -0.9567 -0.2911 1187.6742 -305.5278)">
					<stop  offset="0" style="stop-color:#E3346F"/>
					<stop  offset="1" style="stop-color:#A41A1A"/>
				</linearGradient>
				<polygon style="fill:url(#SVGID_00000023966063377475189690000000016013804833527435_);" points="660.995,312.111 
					586.992,286.385 550.994,327.187 564.74,325.069 645.334,363.082 				"/>
				<polygon style="fill:#660B1E;" points="645.334,363.082 641.001,365.296 561.259,325.538 564.74,325.069 				"/>
			</g>
			<g>
				<path style="fill:#BAF6FF;" d="M606.959,320.439c-0.299-0.123-0.606-0.245-0.917-0.363c-0.314-0.115-0.628-0.228-0.943-0.337
					c-0.169-0.057-0.344-0.11-0.523-0.162c-0.182-0.051-0.358-0.106-0.524-0.162l-2.558,8.137c-0.218-0.106-0.456-0.206-0.715-0.301
					c-0.261-0.093-0.511-0.183-0.759-0.267c-0.248-0.084-0.478-0.16-0.69-0.226c-0.217-0.069-0.409-0.125-0.58-0.172
					c-0.189-0.054-0.376-0.108-0.558-0.158c0.715-1.807,1.406-3.6,2.073-5.384c0.669-1.785,1.315-3.595,1.94-5.431
					c0.599-1.758,1.172-3.512,1.718-5.259c0.546-1.748,1.064-3.52,1.553-5.315c1.135,0.488,2.231,0.909,3.287,1.269
					c0.672,0.229,1.347,0.441,2.025,0.633c0.679,0.192,1.408,0.388,2.188,0.587l-1.161,3.408c-0.573-0.317-1.15-0.608-1.728-0.87
					c-0.576-0.264-1.162-0.495-1.754-0.697l-0.578-0.197c-0.455,1.079-0.887,2.177-1.295,3.295
					c-0.408,1.116-0.811,2.262-1.211,3.438l-0.197,0.58c0.239,0.102,0.483,0.197,0.729,0.28c0.247,0.085,0.5,0.17,0.757,0.258
					c0.227,0.078,0.459,0.156,0.695,0.238c0.237,0.08,0.483,0.153,0.736,0.218L606.959,320.439z"/>
				<path style="fill:#BAF6FF;" d="M612.928,331.448c0.183-0.697,0.371-1.4,0.562-2.106c0.19-0.706,0.375-1.421,0.556-2.141
					c-0.426-0.179-0.835-0.352-1.23-0.518c-0.393-0.168-0.799-0.323-1.214-0.464l-0.191-0.065c-0.293,0.694-0.576,1.379-0.85,2.057
					c-0.276,0.679-0.544,1.352-0.806,2.023l-3.682-1.319c1.812-3.318,3.564-6.643,5.251-9.981c1.687-3.338,3.311-6.73,4.87-10.178
					l4.432,1.593c-0.824,3.652-1.564,7.311-2.222,10.97c-0.657,3.66-1.23,7.374-1.719,11.143L612.928,331.448z M617.189,313.263
					c-0.817,1.748-1.622,3.497-2.415,5.243c-0.793,1.746-1.576,3.513-2.351,5.299c0.202,0.091,0.41,0.173,0.626,0.246
					c0.22,0.074,0.442,0.151,0.669,0.227l0.96,0.329c0.458-1.894,0.892-3.779,1.3-5.657
					C616.386,317.073,616.791,315.175,617.189,313.263z"/>
				<path style="fill:#BAF6FF;" d="M631.171,317.247c-0.31-0.128-0.667-0.265-1.074-0.415c-0.406-0.15-0.842-0.303-1.306-0.462
					c-0.382,0.895-0.762,1.827-1.141,2.793c-0.38,0.969-0.757,1.953-1.132,2.955c-0.375,1.002-0.737,2.012-1.097,3.031
					c-0.357,1.018-0.705,2.026-1.045,3.024c-0.387,1.136-0.753,2.236-1.101,3.303c-0.347,1.067-0.665,2.1-0.951,3.107l-3.154-1.075
					c0.659-1.649,1.337-3.413,2.033-5.292c0.695-1.879,1.37-3.782,2.026-5.707c0.427-1.254,0.83-2.484,1.207-3.687
					c0.376-1.205,0.744-2.381,1.101-3.527c-0.473-0.161-0.925-0.309-1.352-0.444c-0.428-0.134-0.814-0.25-1.156-0.344l1.085-3.086
					c0.345,0.15,0.737,0.309,1.176,0.474c0.44,0.167,0.903,0.338,1.386,0.515c0.488,0.176,0.985,0.354,1.497,0.534
					c0.512,0.181,1.016,0.354,1.509,0.523c0.492,0.168,0.959,0.327,1.399,0.477c0.44,0.149,0.835,0.273,1.187,0.371L631.171,317.247
					z"/>
			</g>
		</g>
	</g>
</g>
</svg>
